HIERARCHY
ROOT Hips
{
  OFFSET -6.50035 106.728 -6.46591
  CHANNELS 6 Xposition Yposition Zposition Zrotation Xrotation Yrotation
  JOINT ToSpine
  {
    OFFSET -2.69724 7.43032 -0.144315
    CHANNELS 3 Zrotation Xrotation Yrotation
    JOINT Spine
    {
      OFFSET -0.0310711 10.7595 1.96963
      CHANNELS 3 Zrotation Xrotation Yrotation
      JOINT Spine1
      {
        OFFSET 19.9056 3.91189 0.764692
        CHANNELS 3 Zrotation Xrotation Yrotation
        JOINT Neck
        {
          OFFSET 25.9749 7.03908 -0.130764
          CHANNELS 3 Zrotation Xrotation Yrotation
          JOINT Head
          {
            OFFSET 9.52751 0.295786 -0.907742
            CHANNELS 3 Zrotation Xrotation Yrotation
            End Site
            {
              OFFSET 16.4037 0.713936 2.7358
            }
          }
        }
        JOINT LeftShoulder
        {
          OFFSET 17.7449 4.33886 11.7777
          CHANNELS 3 Zrotation Xrotation Yrotation
          JOINT LeftArm
          {
            OFFSET 0.911315 1.27913 9.80584
            CHANNELS 3 Zrotation Xrotation Yrotation
            JOINT LeftForeArm
            {
              OFFSET 28.6126 1.18197 -3.53199
              CHANNELS 3 Zrotation Xrotation Yrotation
              JOINT LeftHand
              {
                OFFSET 27.5088 0.0218783 0.327423
                CHANNELS 3 Zrotation Xrotation Yrotation
                End Site
                {
                  OFFSET 18.6038 -0.000155887 0.382096
                }
              }
            }
          }
        }
        JOINT RightShoulder
        {
          OFFSET 17.1009 2.89543 -12.2328
          CHANNELS 3 Zrotation Xrotation Yrotation
          JOINT RightArm
          {
            OFFSET 1.4228 0.178766 -10.211
            CHANNELS 3 Zrotation Xrotation Yrotation
            JOINT RightForeArm
            {
              OFFSET 28.733 1.87905 2.64907
              CHANNELS 3 Zrotation Xrotation Yrotation
              JOINT RightHand
              {
                OFFSET 27.4588 0.290562 -0.101845
                CHANNELS 3 Zrotation Xrotation Yrotation
                End Site
                {
                  OFFSET 17.8396 -0.255518 -0.000602873
                }
              }
            }
          }
        }
      }
    }
  }
  JOINT LeftUpLeg
  {
    OFFSET -5.61296 -2.22332 -10.2353
    CHANNELS 3 Zrotation Xrotation Yrotation
    JOINT LeftLeg
    {
      OFFSET 2.56703 -44.7417 -7.93097
      CHANNELS 3 Zrotation Xrotation Yrotation
      JOINT LeftFoot
      {
        OFFSET 3.16933 -46.5642 -3.96578
        CHANNELS 3 Zrotation Xrotation Yrotation
        JOINT LeftToeBase
        {
          OFFSET 0.346054 -6.02161 12.8035
          CHANNELS 3 Zrotation Xrotation Yrotation
          End Site
          {
            OFFSET 0.134235 -1.35082 5.13018
          }
        }
      }
    }
  }
  JOINT RightUpLeg
  {
    OFFSET -5.7928 -1.72406 10.6446
    CHANNELS 3 Zrotation Xrotation Yrotation
    JOINT RightLeg
    {
      OFFSET -2.57161 -44.7178 -7.85259
      CHANNELS 3 Zrotation Xrotation Yrotation
      JOINT RightFoot
      {
        OFFSET -3.10148 -46.5936 -4.03391
        CHANNELS 3 Zrotation Xrotation Yrotation
        JOINT RightToeBase
        {
          OFFSET -0.0828122 -6.13587 12.8035
          CHANNELS 3 Zrotation Xrotation Yrotation
          End Site
          {
            OFFSET -0.131328 -1.35082 5.13018
          }
        }
      }
    }
  }
}
MOTION
Frames:	15
Frame Time:	0.0333333
-6.56436 106.857 -8.27088 18.3908 -72.7815 -70.5506 -70.1915 0 88.8779 74.1052 70.9702 9.9498 4.03036 19.2216 7.13777 -151.669 23.4641 172.315 -159.479 62.7549 -178.899 2.23317 -3.79771 -31.7366 -104.265 52.2042 -90.9249 -16.6669 52.023 12.1491 5.5284 -0.284445 -4.03289 0.283359 -0.894796 46.5527 -69.5689 -34.4677 100.384 -6.29937 -9.8559 11.0313 12.399 -0.200532 -2.30206 -59.1676 -0.2583 95.6436 2.75859 15.982 -3.05809 4.49453 -1.84232 -0.715218 -0.798702 -1.37052 2.87817 -59.9322 2.65585 81.7095 -1.40758 17.5748 -2.36607 -2.00517 -2.22879 0.530425 0.106525 -0.815399 -2.00702 
-6.56668 106.838 -8.28029 18.6132 -72.7945 -70.2733 -70.1915 0 88.8779 74.4011 70.9859 9.66054 4.03695 19.2106 7.16201 -151.774 23.4371 172.228 -159.608 62.7449 -178.754 2.2225 -3.84091 -31.6986 -103.846 52.2632 -91.307 -16.5225 50.5963 11.7837 6.37409 -0.34287 -4.18909 0.304591 -0.960983 46.5566 -69.0356 -34.3803 100.678 -6.34811 -9.18791 11.1666 12.1689 -0.24586 -2.85527 -59.2154 -0.226993 95.6151 2.80933 15.8764 -2.91233 4.44299 -1.80784 -0.708672 -0.788066 -1.47279 2.2725 -59.9513 2.73629 81.7435 -1.45033 17.6017 -2.48615 -1.97331 -2.24531 0.528037 0.0606882 -1.02276 -1.97032 
-6.59571 106.824 -8.31774 19.286 -72.7701 -69.6238 -70.1915 0 88.8779 75.1038 70.9956 8.66537 3.78551 19.1128 7.35391 -151.537 23.3662 171.847 -158.971 62.646 -179.049 2.20946 -3.88787 -31.6306 -102.591 52.3463 -92.1663 -16.1339 45.6172 10.7194 9.72639 -0.583328 -5.03709 0.321223 -1.01163 46.6768 -68.575 -34.3132 100.96 -6.5696 -7.68477 11.3059 10.7164 -0.411855 -4.99774 -59.2107 -0.277368 95.5732 2.81412 15.8595 -2.99779 4.28218 -1.7609 -0.690196 -0.785478 -1.50245 2.1017 -59.8919 2.61153 81.6105 -1.36447 17.806 -2.56853 -1.99286 -2.35417 0.535909 0.107201 -0.934331 -2.19142 
-6.6111 106.828 -8.33721 19.072 -72.7991 -69.8392 -70.1915 0 88.8779 75.5039 71.0214 8.23669 3.74358 19.0936 7.40483 -151.612 23.3416 172.015 -159.346 62.6583 -178.513 2.22992 -3.82505 -31.7747 -102.435 52.1434 -92.3619 -16.1874 45.5984 10.7141 9.51745 -0.556861 -4.84458 0.309622 -0.975243 46.736 -68.2951 -34.1768 101.147 -6.60765 -7.55059 11.3125 11.0524 -0.419885 -4.96507 -59.2231 -0.267418 95.5807 2.82822 15.8193 -2.96437 4.01226 -1.78933 -0.66284 -0.709694 -1.28223 2.19948 -59.865 2.65443 81.6484 -1.39632 17.8267 -2.57015 -1.96145 -2.34288 0.532098 0.102054 -0.921221 -2.1323 
-6.59255 106.819 -8.36497 19.0737 -72.7534 -69.7271 -70.1915 0 88.8779 76.0843 70.9552 7.92908 3.84814 19.0543 7.18819 -152.076 23.3273 172.338 -160.025 62.6855 -177.908 2.24802 -3.77738 -31.9268 -102.38 51.9937 -92.5322 -16.177 45.5487 10.7049 9.63613 -0.570767 -4.92579 0.309644 -0.976019 46.6309 -68.2034 -34.2265 101.418 -6.6407 -7.39489 11.3256 11.2473 -0.43536 -5.0466 -59.1201 -0.159139 95.5961 2.83796 15.8604 -2.94982 3.98961 -1.83684 -0.662249 -0.702728 -1.3402 1.84663 -59.8168 2.78341 81.7049 -1.42541 17.7989 -2.72606 -1.89526 -2.32035 0.524132 0.105101 -0.873097 -2.08262 
-6.59363 106.828 -8.40414 19.1532 -72.7229 -69.6563 -70.1915 0 88.8779 76.9032 70.954 7.05432 3.63454 18.9886 7.23409 -152.2 23.3163 172.453 -160.339 62.6919 -177.726 2.23669 -3.8461 -31.9689 -102.524 51.9033 -92.2711 -16.1326 45.4541 10.6874 9.30325 -0.549752 -4.90746 0.284637 -0.897708 46.7688 -67.9848 -34.0359 101.463 -6.61351 -7.15446 11.4355 11.2247 -0.451595 -5.23087 -59.1032 -0.206618 95.5459 2.86765 15.7881 -2.91918 3.85709 -1.8269 -0.648003 -0.629041 -1.15512 1.81455 -59.7478 2.75444 81.6857 -1.41299 17.852 -2.76019 -1.83778 -2.3264 0.518592 0.118334 -0.80471 -2.07976 
-6.61324 106.839 -8.43143 19.1527 -72.747 -69.6359 -70.1915 0 88.8779 77.8836 71.0395 6.06683 3.44922 19.0152 7.24585 -152.28 23.4065 172.469 -160.705 62.816 -177.375 2.21401 -3.89838 -31.7489 -102.562 52.0988 -92.2009 -16.1154 45.3543 10.6685 9.41083 -0.551968 -4.85908 0.288999 -0.911227 46.7756 -67.7761 -34.0501 101.519 -6.53489 -7.02613 11.5649 11.2532 -0.462116 -5.33055 -59.1899 -0.18207 95.5564 2.88225 15.6166 -2.89972 3.84769 -1.73214 -0.643362 -0.622719 -1.17345 1.65571 -59.7723 2.78939 81.6879 -1.40461 17.8117 -2.82205 -1.80308 -2.2924 0.513173 0.120111 -0.74318 -2.00103 
-6.61691 106.847 -8.47931 19.3253 -72.7053 -69.4899 -70.1915 0 88.8779 78.6021 71.1076 5.224 3.39324 19.0542 7.20958 -152.4 23.3867 172.151 -160.758 62.8105 -177.428 2.20161 -3.9055 -31.5517 -102.75 52.2858 -92.1901 -16.0529 45.5862 10.7137 9.54425 -0.571958 -5.00143 0.311378 -0.980112 46.8249 -67.8863 -34.1136 101.541 -6.45123 -7.04128 11.6607 11.1299 -0.450755 -5.26659 -59.2125 -0.206078 95.5595 2.83022 15.4628 -2.95589 3.84006 -1.64822 -0.639309 -0.598288 -1.10174 1.69435 -59.6809 2.66225 81.5741 -1.29704 17.9085 -2.82451 -1.79728 -2.33036 0.514685 0.131228 -0.650394 -1.94664 
-6.60327 106.855 -8.53857 19.1275 -72.6912 -69.7505 -70.1915 0 88.8779 79.7854 71.1891 3.94091 3.17771 19.0187 7.43204 -152.942 23.4454 172.993 -162.335 62.95 -176.205 2.21015 -3.90409 -31.7016 -102.751 52.2584 -92.1273 -16.078 45.594 10.7153 9.26518 -0.551173 -4.95061 0.299468 -0.944918 46.5477 -67.7127 -34.2124 101.689 -6.36715 -6.95546 11.7842 11.1285 -0.482794 -5.61437 -59.2099 -0.290642 95.5117 2.81644 15.3623 -2.86574 3.78949 -1.66388 -0.634554 -0.503272 -0.819215 1.8491 -59.5286 2.50333 81.4704 -1.1972 18.0739 -2.70379 -1.77783 -2.365 0.514633 0.141768 -0.558978 -1.8907 
-6.59794 106.861 -8.60529 19.1194 -72.58 -69.8178 -70.1915 0 88.8779 80.3437 71.3053 3.11966 3.10566 19.0516 7.64344 -153.176 23.5133 172.885 -162.266 63.0082 -176.49 2.20331 -4.00609 -31.9323 -102.621 52.0513 -92.3261 -16.0348 45.4627 10.6906 9.22314 -0.544804 -4.9041 0.330289 -1.04265 46.3806 -67.709 -34.3641 101.801 -6.28757 -7.00895 11.8456 11.3162 -0.499435 -5.69968 -59.2034 -0.399677 95.4281 2.80267 15.0756 -2.75529 3.86111 -1.49199 -0.635523 -0.510526 -0.858945 1.75809 -59.3173 2.36923 81.4077 -1.13973 18.2008 -2.70911 -1.73943 -2.36867 0.51093 0.13786 -0.524162 -1.81067 
-6.63676 106.877 -8.66639 18.6381 -72.3454 -70.2794 -70.1915 0 88.8779 80.3624 71.423 3.00042 3.09319 19.1266 7.79961 -153.02 23.5342 172.876 -162.328 63.0487 -176.077 2.21105 -4.15509 -32.6398 -102.414 51.3519 -92.6568 -15.9866 45.161 10.634 9.13271 -0.539198 -4.90062 0.356324 -1.12472 46.3358 -67.4016 -34.3393 102.006 -6.22256 -6.79735 12.0065 11.4437 -0.501275 -5.65543 -58.9643 -0.330222 95.4285 2.7195 14.9255 -2.69573 3.90462 -1.41952 -0.637433 -0.466315 -0.749632 1.73282 -59.0247 2.41858 81.4744 -1.11986 18.12 -2.79008 -1.72161 -2.28038 0.504164 0.145889 -0.431745 -1.73603 
-6.64325 106.88 -8.77817 18.7051 -72.1446 -70.085 -70.1915 0 88.8779 81.7284 71.3758 2.00849 3.04266 19.1604 7.3421 -153.175 23.4915 172.739 -162.117 62.9907 -176.34 2.17351 -4.10688 -31.7627 -102.705 52.0976 -92.53 -15.9532 45.5077 10.7021 8.64401 -0.505811 -4.8348 0.343996 -1.08514 46.4195 -67.9636 -34.5228 101.827 -6.16206 -7.29975 11.8986 11.2528 -0.474421 -5.46289 -58.5732 -0.227336 95.4071 2.73313 15.151 -2.81497 3.90059 -1.51579 -0.640677 -0.39358 -0.56676 1.70523 -58.7924 2.4995 81.5013 -1.04728 18.0821 -3.02092 -1.69754 -2.20824 0.497626 0.15811 -0.332682 -1.68358 
-6.63162 106.884 -8.91443 19.2575 -71.8764 -69.4429 -70.1915 0 88.8779 82.9724 71.2586 0.858916 3.08532 19.0484 7.16082 -153.539 23.5169 172.782 -162.183 63.0133 -176.373 2.19337 -4.10047 -32.1047 -102.41 51.6177 -93.0569 -15.9128 45.2276 10.651 8.16316 -0.461618 -4.61806 0.336993 -1.06196 46.5467 -67.5964 -34.311 102.168 -6.14241 -6.99786 12.0264 11.1274 -0.459315 -5.36098 -58.1703 -0.200537 95.3506 2.70999 15.3081 -3.00984 3.94151 -1.47938 -0.643688 -0.380293 -0.558732 1.59226 -58.5404 2.51123 81.5157 -1.0075 18.052 -3.37416 -1.64358 -2.11248 0.486633 0.146245 -0.33364 -1.59778 
-6.65477 106.887 -9.09433 19.6467 -71.8159 -68.8998 -70.1915 0 88.8779 86.068 71.2093 -2.26656 2.56645 18.879 7.36913 -153.871 23.5723 173.235 -162.465 63.0691 -176.205 2.21743 -4.0519 -32.365 -102.029 51.154 -93.4891 -15.9081 44.5272 10.5233 8.00148 -0.454438 -4.64006 0.31609 -0.99736 46.4843 -67.227 -34.2633 102.353 -5.94823 -7.02355 12.2522 11.1192 -0.450686 -5.26649 -57.9173 -0.0902284 95.336 2.76299 15.5067 -3.21252 3.98761 -1.50192 -0.649502 -0.339488 -0.45589 1.57962 -58.4598 2.62547 81.5312 -0.940007 17.9878 -3.66295 -1.64699 -2.00185 0.480706 0.15008 -0.25863 -1.51935 
-6.69165 106.89 -9.28407 19.6094 -71.722 -68.898 -70.1915 0 88.8779 88.7659 71.2693 -4.95277 2.29147 18.9433 7.35727 -154.177 23.6706 173.654 -162.861 63.2003 -175.314 2.23266 -3.91821 -32.1486 -101.615 51.1213 -94.2528 -15.914 44.0325 10.4387 7.65236 -0.415515 -4.36309 0.300809 -0.95 46.4271 -67.7546 -34.2403 102.315 -5.97585 -7.7621 11.9876 10.5745 -0.373599 -4.65772 -57.6685 -0.0602686 95.3003 2.77644 15.5659 -3.23328 3.91482 -1.49825 -0.64152 -0.239366 -0.199871 1.5638 -58.2034 2.66119 81.5595 -0.922111 18.0679 -3.77644 -1.64466 -1.94445 0.47719 0.163658 -0.166959 -1.48909 
